# xmcd
#
# Track frame offsets:
#	183
#	11508
#	29768
#	43595
#	53405
#	71200
#	82203
#	97750
#	110460
#	124128
#	139740
#	154578
#	169625
#	184688
#	192385
#	206220
#	216438
#	227710
#	238960
#	249448
#	259223
#	278060
#	293513
#
# Disc length: 4072 seconds
#
# Revision: 1
# Processed by: cddbd v1.4b41PL1 Copyright (c) Steve Scherf et al.
# Submitted via: audiograbber 1.80
#
DISCID=530fe617
DTITLE=Greenhorns - Hity z let 1969 - 1976
DYEAR=1900
DGENRE=
TTITLE0=Blues Folsomské veznice
TTITLE1=Divka s vlasem medovym
TTITLE2=A slunce pálí jen
TTITLE3=Honzuv song
TTITLE4=Co se bude dít
TTITLE5=Casey Jones
TTITLE6=El Paso
TTITLE7=Blues hvízdavého vlaku
TTITLE8=Blízko Little Big Hornu
TTITLE9=Poslední sklenka
TTITLE10=Odvolejte kneze
TTITLE11=Divnej smích
TTITLE12=Zlutá kytka
TTITLE13=Vlak v 0.5
TTITLE14=Na vánoce ráno
TTITLE15=Hej, Joe
TTITLE16=Sest bílych koní
TTITLE17=Neváhej
TTITLE18=Kdyz nás táta hrál
TTITLE19=Sest dní na silnici
TTITLE20=Oranzovy expres
TTITLE21=Cervená reka
TTITLE22=Hromskej den
EXTD=
EXTT0=
EXTT1=
EXTT2=
EXTT3=
EXTT4=
EXTT5=
EXTT6=
EXTT7=
EXTT8=
EXTT9=
EXTT10=
EXTT11=
EXTT12=
EXTT13=
EXTT14=
EXTT15=
EXTT16=
EXTT17=
EXTT18=
EXTT19=
EXTT20=
EXTT21=
EXTT22=
PLAYORDER=
